<?xml version="1.0" standalone="no"?>
<!DOCTYPE svg PUBLIC "-//W3C//DTD SVG 20010904//EN"
 "http://www.w3.org/TR/2001/REC-SVG-20010904/DTD/svg10.dtd">
<svg version="1.0" xmlns="http://www.w3.org/2000/svg"
 width="552.000000pt" height="552.000000pt" viewBox="0 0 552.000000 552.000000"
 preserveAspectRatio="xMidYMid meet">
<metadata>
Created by potrace 1.14, written by Peter Selinger 2001-2017
</metadata>
<g transform="translate(0.000000,552.000000) scale(0.100000,-0.100000)"
fill="#000000" stroke="none">
<path d="M2569 5476 c-2 -2 -40 -7 -83 -11 -43 -4 -86 -8 -95 -10 -9 -1 -36
-6 -61 -10 -25 -4 -54 -9 -65 -11 -11 -2 -33 -7 -50 -10 -101 -18 -421 -113
-450 -133 -5 -4 -32 -16 -59 -26 -84 -31 -283 -134 -391 -202 -97 -62 -228
-158 -310 -227 -67 -56 -239 -226 -302 -298 -133 -152 -280 -376 -377 -573
-54 -110 -133 -294 -140 -330 -2 -5 -11 -37 -21 -70 -10 -33 -20 -64 -21 -70
-1 -5 -12 -44 -23 -85 -20 -74 -29 -118 -36 -173 -2 -16 -6 -40 -9 -55 -3 -15
-8 -52 -11 -82 -4 -30 -10 -86 -14 -124 -9 -78 -7 -394 3 -476 6 -58 14 -114
22 -165 3 -16 7 -42 9 -57 2 -15 6 -35 9 -45 3 -10 8 -31 11 -48 7 -40 11 -58
35 -145 12 -41 22 -80 24 -87 1 -7 5 -16 9 -19 4 -4 7 -14 7 -23 0 -15 42
-128 87 -234 89 -212 272 -506 429 -687 101 -117 301 -306 414 -390 18 -14 39
-31 46 -38 7 -6 16 -12 21 -12 4 -1 24 -14 43 -30 19 -17 40 -30 46 -30 7 0
14 -3 16 -7 12 -29 330 -194 493 -257 138 -53 339 -113 440 -131 17 -2 41 -7
55 -10 62 -13 85 -16 235 -33 127 -14 570 -5 635 13 8 3 33 7 55 10 53 8 99
17 158 30 12 3 33 7 47 10 14 2 56 13 93 25 38 12 77 22 88 23 10 1 19 4 19 8
0 4 13 9 29 12 76 16 318 124 474 212 112 63 201 119 217 135 3 3 28 21 55 40
59 41 73 52 184 150 182 160 333 331 465 530 71 107 87 133 160 275 70 135
164 364 181 445 1 3 7 25 14 50 15 52 16 54 35 135 8 33 17 74 19 90 3 17 10
59 15 95 19 117 21 134 28 240 10 155 5 355 -11 485 -17 138 -16 132 -35 225
-6 30 -13 66 -16 78 -6 30 -30 117 -44 162 -6 19 -13 44 -15 54 -19 86 -144
371 -228 521 -227 403 -598 777 -1000 1009 -63 36 -287 148 -301 150 -6 1 -16
5 -22 8 -16 10 -141 57 -199 74 -114 34 -191 56 -210 59 -11 1 -38 7 -60 13
-36 10 -80 18 -140 27 -11 2 -56 8 -100 15 -71 11 -517 24 -526 16z m786
-1441 c101 -17 176 -35 193 -48 6 -5 12 -7 12 -4 0 3 30 -8 68 -25 136 -61
243 -150 314 -261 45 -70 85 -176 94 -252 11 -92 3 -412 -22 -885 -4 -74 -7
-170 -8 -212 -1 -43 -3 -78 -6 -78 -3 0 -5 -30 -6 -68 -1 -81 -13 -314 -29
-557 -4 -49 -6 -97 -6 -105 0 -8 -2 -25 -5 -37 l-4 -22 -361 0 -360 0 6 137
c7 161 11 240 20 382 3 58 8 143 10 190 6 121 15 283 20 370 34 631 28 708
-67 815 -65 74 -164 103 -343 100 -203 -4 -342 -52 -441 -152 -107 -108 -146
-231 -159 -508 -3 -60 -7 -144 -10 -185 -5 -73 -10 -171 -20 -375 -5 -99 -11
-208 -20 -380 -3 -49 -7 -137 -11 -195 -3 -58 -7 -123 -9 -145 -2 -22 -4 -45
-4 -52 -1 -8 -94 -11 -359 -12 l-359 0 3 237 c2 130 5 253 7 272 6 55 20 269
21 327 1 29 3 53 6 53 3 0 5 33 6 73 1 66 5 159 19 407 3 52 7 138 10 190 3
52 7 136 10 185 6 97 11 189 21 385 4 69 8 160 8 202 1 43 4 78 7 78 3 0 4 14
3 30 -5 70 -29 66 339 64 183 0 337 -2 342 -3 7 0 10 -55 10 -151 0 -82 2
-150 5 -150 10 1 80 70 80 80 0 6 5 10 10 10 6 0 18 8 28 18 148 142 339 230
557 258 28 3 51 7 53 9 9 9 258 1 327 -10z"/>
</g>
</svg>
